HIERARCHY
ROOT Hips
{
  OFFSET 42.9393 100.051 0.431031
  CHANNELS 6 Xposition Yposition Zposition Zrotation Xrotation Yrotation
  JOINT spine
  {
    OFFSET 0 8.81705 0.507024
    CHANNELS 3 Zrotation Xrotation Yrotation
    JOINT spine1
    {
      OFFSET 0 10.7766 0
      CHANNELS 3 Zrotation Xrotation Yrotation
      JOINT spine2
      {
        OFFSET 0 10.3259 0
        CHANNELS 3 Zrotation Xrotation Yrotation
        JOINT Neck
        {
          OFFSET 0 26.511 1.26395
          CHANNELS 3 Zrotation Xrotation Yrotation
          JOINT Head
          {
            OFFSET 0 8.00966 0
            CHANNELS 3 Zrotation Xrotation Yrotation
            End Site
            {
              OFFSET 0 19.3879 -6.39386
            }
          }
        }
        JOINT RightShoulder
        {
          OFFSET -4.34795 11.1512 -0.605422
          CHANNELS 3 Zrotation Xrotation Yrotation
          JOINT RightArm
          {
            OFFSET 0 14.6258 0
            CHANNELS 3 Zrotation Xrotation Yrotation
            JOINT RightArmRoll
            {
              OFFSET 0 7.3834 0
              CHANNELS 3 Zrotation Xrotation Yrotation
              JOINT RightForeArm
              {
                OFFSET 0 21.5052 0
                CHANNELS 3 Zrotation Xrotation Yrotation
                JOINT RightForeArmRoll
                {
                  OFFSET 0 8.28532 0
                  CHANNELS 3 Zrotation Xrotation Yrotation
                  JOINT RightHand
                  {
                    OFFSET 0 16.6268 0
                    CHANNELS 3 Zrotation Xrotation Yrotation
                    End Site
                    {
                      OFFSET 0 0 0
                    }
                  }
                }
              }
            }
          }
        }
        JOINT LeftShoulder
        {
          OFFSET 4.34795 11.1512 -0.605422
          CHANNELS 3 Zrotation Xrotation Yrotation
          JOINT LeftArm
          {
            OFFSET 0 14.6258 0
            CHANNELS 3 Zrotation Xrotation Yrotation
            JOINT LeftArmRoll
            {
              OFFSET 0 7.38339 0
              CHANNELS 3 Zrotation Xrotation Yrotation
              JOINT LeftForeArm
              {
                OFFSET 0 21.5052 0
                CHANNELS 3 Zrotation Xrotation Yrotation
                JOINT LeftForeArmRoll
                {
                  OFFSET 0 8.28532 0
                  CHANNELS 3 Zrotation Xrotation Yrotation
                  JOINT LeftHand
                  {
                    OFFSET 0 16.6268 0
                    CHANNELS 3 Zrotation Xrotation Yrotation
                    End Site
                    {
                      OFFSET 0 0 0
                    }
                  }
                }
              }
            }
          }
        }
      }
    }
  }
  JOINT RightUpLeg
  {
    OFFSET -7.8151 -1.43309 -1.20217
    CHANNELS 3 Zrotation Xrotation Yrotation
    JOINT RightUpLegRoll
    {
      OFFSET 0 19.4959 0
      CHANNELS 3 Zrotation Xrotation Yrotation
      JOINT RightLeg
      {
        OFFSET 0 -24.1427 0
        CHANNELS 3 Zrotation Xrotation Yrotation
        JOINT RightLegRoll
        {
          OFFSET 0 24.2217 0
          CHANNELS 3 Zrotation Xrotation Yrotation
          JOINT RightFoot
          {
            OFFSET 0 20.1605 0
            CHANNELS 3 Zrotation Xrotation Yrotation
            JOINT RightToeBase
            {
              OFFSET 0 16.8532 0
              CHANNELS 3 Zrotation Xrotation Yrotation
              End Site
              {
                OFFSET 0.00714342 8.16186 -0.940781
              }
            }
          }
        }
      }
    }
  }
  JOINT LeftUpLeg
  {
    OFFSET 7.8151 -1.43309 -1.20217
    CHANNELS 3 Zrotation Xrotation Yrotation
    JOINT LeftUpLegRoll
    {
      OFFSET 0 19.496 0
      CHANNELS 3 Zrotation Xrotation Yrotation
      JOINT LeftLeg
      {
        OFFSET 0 24.1426 0
        CHANNELS 3 Zrotation Xrotation Yrotation
        JOINT LeftLegRoll
        {
          OFFSET 0 24.4456 0
          CHANNELS 3 Zrotation Xrotation Yrotation
          JOINT LeftFoot
          {
            OFFSET 0 19.9366 0
            CHANNELS 3 Zrotation Xrotation Yrotation
            JOINT LeftToeBase
            {
              OFFSET 0 16.8532 0
              CHANNELS 3 Zrotation Xrotation Yrotation
              End Site
              {
                OFFSET -0.0320138 8.16187 -0.94078
              }
            }
          }
        }
      }
    }
  }
}
MOTION
Frames: 12
Frame Time: 0.00208333
49.5292 99.9365 5.2233 1.18474 3.06513 3.47597 0.142061 -1.84073 0.0685772 0.291166 0.324136 0.14693 0.289775 1.96919 0.142111 -7.99848 30.8273 3.66538 1.38433 11.6099 0.544005 58.2167 -3.54032 -2.16987 114.329 15.1963 12.223 3.01954e-006 -5.86446e-007 -1.0238e-006 12.0655 2.89021 -0.622136 -7.73829e-006 -1.16917e-007 -3.01199 8.02888 -4.95148 0.697682 -62.4155 -4.1712 2.87045 -109.948 13.6612 -6.26915 -2.4616e-006 1.16761e-006 -4.69172e-007 -10.6351 4.04923 0.898148 2.02417e-006 -7.12256e-007 3.00313 -8.02893 -4.95146 -0.697675 176.173 9.1754 0.347074 180 7.01582e-015 179.089 178.119 13.0669 179.548 3.27834e-006 -3.51779e-006 0.164717 -18.9873 70.1581 21.4274 8.12826 25.2331 -3.48423 -178.842 7.4855 3.6829 4.54188e-006 -4.6773e-006 -0.944283 -2.43025 -8.99995 0.207409 3.64508e-006 -2.01473e-007 -0.086818 17.8321 68.6619 -20.0787 -8.13594 25.2327 3.4875 
49.5308 99.9369 5.23191 1.18249 3.08007 3.4686 0.141871 -1.84111 0.069671 0.291086 0.323181 0.14735 0.289692 1.96823 0.142529 -8.00857 30.8256 3.67225 1.38797 11.6047 0.547138 58.2138 -3.53522 -2.16655 114.354 15.2043 12.1682 3.01954e-006 -5.86446e-007 -1.0238e-006 12.0939 2.9375 -0.628047 -7.73829e-006 -1.16917e-007 -3.01199 8.02888 -4.95148 0.697682 -62.413 -4.17673 2.87353 -109.958 13.6667 -6.24675 -2.4616e-006 1.16761e-006 -4.69172e-007 -10.6452 4.08258 0.902579 2.02417e-006 -7.12256e-007 3.00313 -8.02893 -4.95146 -0.697675 176.175 9.20761 0.345641 180 7.01582e-015 179.09 178.117 13.0799 179.548 3.27834e-006 -3.51779e-006 0.164717 -18.9843 70.1547 21.4216 8.12826 25.2331 -3.48423 -178.837 7.51552 3.67682 4.54188e-006 -4.6773e-006 -0.944102 -2.43599 -9.01691 0.206887 3.64508e-006 -2.01473e-007 -0.086818 17.8325 68.6612 -20.0769 -8.13594 25.2327 3.4875 
49.5194 99.9334 5.22206 1.18015 3.09488 3.46099 0.141689 -1.84154 0.0708028 0.291026 0.322135 0.147779 0.28963 1.96719 0.142956 -8.01856 30.8239 3.67913 1.39155 11.5999 0.550308 58.211 -3.53008 -2.16321 114.379 15.2123 12.1135 3.01954e-006 -5.86446e-007 -1.0238e-006 12.1223 2.98442 -0.633894 -7.73829e-006 -1.16917e-007 -3.01199 8.02888 -4.95148 0.697682 -62.4104 -4.18247 2.87672 -109.967 13.6725 -6.22483 -2.4616e-006 1.16761e-006 -4.69172e-007 -10.6549 4.11504 0.906954 2.02417e-006 -7.12256e-007 3.00313 -8.02893 -4.95146 -0.697675 176.177 9.23976 0.344051 180 7.01582e-015 179.09 178.114 13.0931 179.549 3.27834e-006 -3.51779e-006 0.164717 -18.9812 70.1514 21.4157 8.12826 25.2331 -3.48423 -178.832 7.54554 3.67066 4.54188e-006 -4.6773e-006 -0.943936 -2.44174 -9.03431 0.206363 3.64508e-006 -2.01473e-007 -0.086818 17.8329 68.6608 -20.0752 -8.13594 25.2327 3.4875 
49.5244 99.9349 5.22612 1.17775 3.1096 3.45321 0.141515 -1.84199 0.0719611 0.290981 0.321026 0.148214 0.289583 1.96608 0.143389 -8.02847 30.8222 3.68601 1.3951 11.5951 0.553502 58.2083 -3.52492 -2.15988 114.404 15.2204 12.0588 3.01954e-006 -5.86446e-007 -1.0238e-006 12.1508 3.03106 -0.639697 -7.73829e-006 -1.16917e-007 -3.01199 8.02888 -4.95148 0.697682 -62.4078 -4.18835 2.88 -109.978 13.6787 -6.20325 -2.4616e-006 1.16761e-006 -4.69172e-007 -10.6643 4.14688 0.911291 2.02417e-006 -7.12256e-007 3.00313 -8.02893 -4.95146 -0.697675 176.179 9.27188 0.342351 180 7.01582e-015 179.09 178.112 13.1064 179.549 3.27834e-006 -3.51779e-006 0.164717 -18.9781 70.1482 21.4097 8.12826 25.2331 -3.48423 -178.827 7.57555 3.66445 4.54188e-006 -4.6773e-006 -0.943781 -2.44751 -9.05203 0.20584 3.64508e-006 -2.01473e-007 -0.086818 17.8335 68.6606 -20.0736 -8.13594 25.2327 3.4875 
49.5326 99.943 5.22542 1.17531 3.12428 3.44533 0.141344 -1.84247 0.0731346 0.290944 0.31988 0.148653 0.289545 1.96493 0.143826 -8.03835 30.8205 3.69289 1.39863 11.5905 0.556711 58.2056 -3.51973 -2.15653 114.428 15.2285 12.0041 3.01954e-006 -5.86446e-007 -1.0238e-006 12.1793 3.07755 -0.645475 -7.73829e-006 -1.16917e-007 -3.01199 8.02888 -4.95148 0.697682 -62.4051 -4.1943 2.88332 -109.988 13.685 -6.18185 -2.4616e-006 1.16761e-006 -4.69172e-007 -10.6735 4.17836 0.915606 2.02417e-006 -7.12256e-007 3.00313 -8.02893 -4.95146 -0.697675 176.182 9.30399 0.340588 180 7.01582e-015 179.09 178.11 13.1198 179.549 3.27834e-006 -3.51779e-006 0.164717 -18.975 70.145 21.4038 8.12826 25.2331 -3.48423 -178.821 7.60556 3.6582 4.54188e-006 -4.6773e-006 -0.943632 -2.45327 -9.06993 0.205316 3.64508e-006 -2.01473e-007 -0.086818 17.8342 68.6605 -20.072 -8.13594 25.2327 3.4875 
49.5252 99.9389 5.1988 1.17288 3.13895 3.43743 0.141175 -1.84294 0.0743119 0.290909 0.318724 0.149094 0.289509 1.96378 0.144264 -8.04821 30.8189 3.69977 1.40216 11.586 0.559923 58.2029 -3.51455 -2.15319 114.453 15.2366 11.9495 3.01954e-006 -5.86446e-007 -1.0238e-006 12.2078 3.124 -0.651247 -7.73829e-006 -1.16917e-007 -3.01199 8.02888 -4.95148 0.697682 -62.4024 -4.20028 2.88665 -109.998 13.6914 -6.1605 -2.4616e-006 1.16761e-006 -4.69172e-007 -10.6826 4.20975 0.919916 2.02417e-006 -7.12256e-007 3.00313 -8.02893 -4.95146 -0.697675 176.184 9.33608 0.338809 180 7.01582e-015 179.09 178.108 13.1332 179.549 3.27834e-006 -3.51779e-006 0.164717 -18.9719 70.1419 21.3979 8.12826 25.2331 -3.48423 -178.816 7.63557 3.65195 4.54188e-006 -4.6773e-006 -0.943485 -2.45904 -9.08788 0.204793 3.64508e-006 -2.01473e-007 -0.086818 17.8348 68.6603 -20.0705 -8.13594 25.2327 3.4875 
49.5124 99.937 5.19685 1.17046 3.15364 3.42958 0.141003 -1.84341 0.0754816 0.29087 0.317588 0.149532 0.289469 1.96264 0.1447 -8.0581 30.8172 3.70664 1.40569 11.5813 0.563128 58.2002 -3.50937 -2.14985 114.478 15.2447 11.8948 3.01954e-006 -5.86446e-007 -1.0238e-006 12.2363 3.17052 -0.657033 -7.73829e-006 -1.16917e-007 -3.01199 8.02888 -4.95148 0.697682 -62.3997 -4.20622 2.88996 -110.008 13.6977 -6.13905 -2.4616e-006 1.16761e-006 -4.69172e-007 -10.6919 4.24132 0.924238 2.02417e-006 -7.12256e-007 3.00313 -8.02893 -4.95146 -0.697675 176.186 9.36819 0.337062 180 7.01583e-015 179.091 178.105 13.1466 179.55 3.27834e-006 -3.51779e-006 0.164717 -18.9689 70.1387 21.3919 8.12826 25.2331 -3.48423 -178.811 7.66558 3.64572 4.54188e-006 -4.6773e-006 -0.943335 -2.46481 -9.10574 0.204269 3.64508e-006 -2.01473e-007 -0.086818 17.8354 68.6602 -20.0689 -8.13594 25.2327 3.4875 
49.5125 99.9388 5.20018 1.16809 3.16839 3.42184 0.140827 -1.84386 0.0766323 0.290821 0.316496 0.149966 0.289418 1.96155 0.145131 -8.06803 30.8155 3.71352 1.40925 11.5766 0.566315 58.1975 -3.50421 -2.14651 114.503 15.2528 11.8401 3.01954e-006 -5.86446e-007 -1.0238e-006 12.2648 3.21724 -0.662852 -7.73829e-006 -1.16917e-007 -3.01199 8.02888 -4.95148 0.697682 -62.3971 -4.21205 2.89321 -110.018 13.7038 -6.11737 -2.4616e-006 1.16761e-006 -4.69172e-007 -10.7013 4.27333 0.928589 2.02417e-006 -7.12256e-007 3.00313 -8.02893 -4.95146 -0.697675 176.189 9.40032 0.335392 180 7.01583e-015 179.091 178.103 13.1599 179.55 3.27834e-006 -3.51779e-006 0.164717 -18.9658 70.1354 21.386 8.12826 25.2331 -3.48423 -178.806 7.6956 3.63952 4.54188e-006 -4.6773e-006 -0.943177 -2.47057 -9.12337 0.203746 3.64508e-006 -2.01473e-007 -0.086818 17.836 68.6599 -20.0673 -8.13594 25.2327 3.4875 
49.5238 99.934 5.19639 1.1658 3.18324 3.4143 0.140643 -1.84428 0.0777527 0.290755 0.315477 0.150392 0.28935 1.96053 0.145555 -8.07805 30.8138 3.72039 1.41286 11.5716 0.569473 58.1946 -3.49909 -2.14318 114.528 15.2607 11.7854 3.01954e-006 -5.86446e-007 -1.0238e-006 12.2933 3.26427 -0.668724 -7.73829e-006 -1.16917e-007 -3.01199 8.02888 -4.95148 0.697682 -62.3946 -4.21773 2.89637 -110.028 13.7095 -6.0953 -2.4616e-006 1.16761e-006 -4.69172e-007 -10.7112 4.30606 0.932985 2.02417e-006 -7.12256e-007 3.00313 -8.02893 -4.95146 -0.697675 176.191 9.43249 0.333849 180 7.01583e-015 179.091 178.101 13.173 179.55 3.27834e-006 -3.51779e-006 0.164717 -18.9628 70.1321 21.3801 8.12826 25.2331 -3.48423 -178.801 7.72562 3.63339 4.54188e-006 -4.6773e-006 -0.943007 -2.47632 -9.14064 0.203223 3.64508e-006 -2.01473e-007 -0.086818 17.8364 68.6594 -20.0656 -8.13594 25.2327 3.4875 
49.5224 99.9339 5.19441 1.16362 3.19822 3.40703 0.140449 -1.84464 0.0788314 0.290667 0.314558 0.150808 0.289259 1.95961 0.14597 -8.08817 30.812 3.72726 1.41652 11.5663 0.572591 58.1917 -3.494 -2.13986 114.553 15.2685 11.7305 3.01954e-006 -5.86446e-007 -1.0238e-006 12.3217 3.31172 -0.674669 -7.73829e-006 -1.16917e-007 -3.01199 8.02888 -4.95148 0.697682 -62.3921 -4.22319 2.89941 -110.038 13.7148 -6.07271 -2.4616e-006 1.16761e-006 -4.69172e-007 -10.7216 4.33977 0.937443 2.02417e-006 -7.12256e-007 3.00313 -8.02893 -4.95146 -0.697675 176.193 9.46472 0.332477 180 7.01583e-015 179.091 178.098 13.186 179.55 3.27834e-006 -3.51779e-006 0.164717 -18.9598 70.1286 21.3743 8.12826 25.2331 -3.48423 -178.796 7.75565 3.62733 4.54188e-006 -4.6773e-006 -0.942819 -2.48206 -9.15742 0.2027 3.64508e-006 -2.01473e-007 -0.086818 17.8367 68.6587 -20.0636 -8.13594 25.2327 3.4875 
49.5247 99.9274 5.19012 1.16157 3.21337 3.40009 0.140241 -1.84495 0.0798569 0.290549 0.313767 0.15121 0.289138 1.95882 0.146372 -8.09844 30.8102 3.73413 1.42026 11.5607 0.57566 58.1885 -3.48897 -2.13655 114.578 15.2761 11.6756 3.01954e-006 -5.86446e-007 -1.0238e-006 12.3501 3.3597 -0.680705 -7.73829e-006 -1.16917e-007 -3.01199 8.02888 -4.95148 0.697682 -62.3898 -4.22836 2.90229 -110.047 13.7195 -6.04945 -2.4616e-006 1.16761e-006 -4.69172e-007 -10.7326 4.37473 0.94198 2.02417e-006 -7.12256e-007 3.00313 -8.02893 -4.95146 -0.697675 176.194 9.49701 0.331326 180 7.01583e-015 179.091 178.096 13.1988 179.551 3.27834e-006 -3.51779e-006 0.164717 -18.9568 70.125 21.3686 8.12826 25.2331 -3.48423 -178.791 7.78569 3.62139 4.54188e-006 -4.6773e-006 -0.942609 -2.48778 -9.17357 0.202177 3.64508e-006 -2.01473e-007 -0.086818 17.8368 68.6576 -20.0615 -8.13594 25.2327 3.4875 
49.498 99.9184 5.10652 1.15968 3.22872 3.39355 0.140016 -1.84519 0.0808179 0.290396 0.31313 0.151597 0.28898 1.95819 0.146759 -8.10888 30.8084 3.74099 1.42409 11.5546 0.578667 58.1852 -3.484 -2.13326 114.604 15.2836 11.6205 3.01954e-006 -5.86446e-007 -1.0238e-006 12.3785 3.40834 -0.686852 -7.73829e-006 -1.16917e-007 -3.01199 8.02888 -4.95148 0.697682 -62.3876 -4.2332 2.90497 -110.057 13.7234 -6.02538 -2.4616e-006 1.16761e-006 -4.69172e-007 -10.7444 4.4112 0.946613 2.02417e-006 -7.12256e-007 3.00313 -8.02893 -4.95146 -0.697675 176.196 9.52939 0.330442 180 7.01583e-015 179.092 178.093 13.2112 179.551 3.27834e-006 -3.51779e-006 0.164717 -18.9539 70.1212 21.3629 8.12826 25.2331 -3.48423 -178.787 7.81575 3.61558 4.54188e-006 -4.6773e-006 -0.942372 -2.49348 -9.18896 0.201655 3.64508e-006 -2.01473e-007 -0.086818 17.8366 68.6561 -20.0592 -8.13594 25.2327 3.4875 
